<svg xmlns="http://www.w3.org/2000/svg" xmlns:xlink="http://www.w3.org/1999/xlink" width="1024" zoomAndPan="magnify" viewBox="0 0 768 576" height="768" preserveAspectRatio="xMidYMid meet" version="1.0"><defs><clipPath id="abc266d677"><path d="M 11 0 L 576 0 L 576 564 L 11 564 Z M 11 0 " clip-rule="nonzero"/></clipPath></defs><g clip-path="url(#abc266d677)"><path fill="#083f72" d="M 564.792969 -0.792969 C 564.792969 -0.792969 564.769531 -0.792969 564.742188 -0.792969 L 442.152344 -0.289062 C 393.816406 -0.0976562 349.128906 21.9375 319.511719 60.144531 L 254.472656 144 L 128.929688 144 C 104.496094 144 81.359375 154.585938 65.375 173.0625 L 14.929688 231.433594 C 12.480469 234.265625 11.496094 238.054688 12.238281 241.726562 C 13.007812 245.375 15.40625 248.472656 18.769531 250.105469 L 131.136719 304.34375 C 118.03125 327.480469 121.464844 357.046875 140.734375 376.296875 L 199.585938 435.144531 C 211.199219 446.761719 226.585938 452.6875 242.039062 452.6875 C 252.3125 452.6875 262.558594 449.953125 271.800781 444.671875 L 326.136719 557.230469 C 327.742188 560.59375 330.839844 563.015625 334.511719 563.761719 C 335.328125 563.929688 336.144531 564 336.960938 564 C 339.816406 564 342.601562 562.992188 344.808594 561.070312 L 403.175781 510.601562 C 421.632812 494.640625 432.214844 471.480469 432.214844 447.046875 L 432.214844 320.257812 L 516.289062 254.566406 C 554.207031 224.953125 576.070312 180.382812 576.265625 132.265625 L 576.769531 11.230469 C 576.769531 8.039062 575.519531 4.96875 573.265625 2.710938 C 571.03125 0.480469 567.984375 -0.792969 564.792969 -0.792969 Z M 83.542969 188.761719 C 94.945312 175.558594 111.503906 168 128.929688 168 L 235.871094 168 L 145.464844 284.59375 L 43.320312 235.296875 Z M 408.238281 447.070312 C 408.238281 464.519531 400.679688 481.078125 387.480469 492.457031 L 340.96875 532.679688 L 291.503906 430.199219 L 408.238281 339 Z M 552.289062 132.191406 C 552.121094 172.894531 533.617188 210.625 501.550781 235.679688 L 264.191406 421.078125 C 249.886719 432.265625 229.414062 431.039062 216.574219 418.175781 L 157.726562 359.328125 C 144.9375 346.535156 143.664062 326.113281 154.726562 311.808594 L 338.472656 74.832031 C 363.527344 42.527344 401.351562 23.878906 442.246094 23.710938 L 552.742188 23.257812 Z M 552.289062 132.191406 " fill-opacity="1" fill-rule="nonzero"/></g><path fill="#083f72" d="M 12 576 L 105.457031 576 C 148.199219 576 186.984375 550.726562 204.238281 511.632812 L 214.96875 487.34375 C 217.632812 481.296875 214.894531 474.191406 208.847656 471.503906 C 202.753906 468.839844 195.695312 471.574219 193.007812 477.625 L 182.28125 501.9375 C 168.863281 532.34375 138.695312 552 105.457031 552 L 24 552 L 24 471.3125 C 24 437.664062 43.992188 407.351562 74.902344 394.105469 L 100.726562 383.039062 C 106.824219 380.425781 109.65625 373.390625 107.039062 367.296875 C 104.425781 361.175781 97.320312 358.320312 91.296875 360.984375 L 65.472656 372.046875 C 25.679688 389.0625 0 428.039062 0 471.3125 L 0 564 C 0 570.625 5.375 576 12 576 Z M 12 576 " fill-opacity="1" fill-rule="nonzero"/><path fill="#083f72" d="M 384 144 C 384 170.472656 405.527344 192 432 192 C 458.472656 192 480 170.472656 480 144 C 480 117.527344 458.472656 96 432 96 C 405.527344 96 384 117.527344 384 144 Z M 456 144 C 456 157.222656 445.222656 168 432 168 C 418.777344 168 408 157.222656 408 144 C 408 130.777344 418.777344 120 432 120 C 445.222656 120 456 130.777344 456 144 Z M 456 144 " fill-opacity="1" fill-rule="nonzero"/></svg>