<svg xmlns="http://www.w3.org/2000/svg" xmlns:xlink="http://www.w3.org/1999/xlink" width="1024" zoomAndPan="magnify" viewBox="0 0 768 576" height="768" preserveAspectRatio="xMidYMid meet" version="1.0"><path fill="#083f72" d="M 72 144 C 87.527344 144 101.832031 138.960938 113.59375 130.558594 L 212.472656 229.441406 C 199.847656 245.6875 192 265.847656 192 288 C 192 312.144531 201.265625 333.984375 216.046875 350.878906 L 134.039062 443.136719 C 122.976562 436.175781 109.992188 432 96 432 C 56.304688 432 24 464.304688 24 504 C 24 543.695312 56.304688 576 96 576 C 135.695312 576 168 543.695312 168 504 C 168 486.984375 161.808594 471.527344 151.894531 459.191406 L 233.761719 367.105469 C 249.214844 377.710938 267.863281 384 288 384 C 320.183594 384 348.550781 367.945312 366 343.558594 L 436.558594 383.542969 C 433.777344 391.222656 432 399.382812 432 408 C 432 447.695312 464.304688 480 504 480 C 543.695312 480 576 447.695312 576 408 C 576 368.304688 543.695312 336 504 336 C 481.535156 336 461.6875 346.558594 448.464844 362.734375 L 377.351562 322.441406 C 381.503906 311.710938 384 300.167969 384 288 C 384 262.320312 373.726562 239.0625 357.238281 221.808594 L 408.769531 158.398438 C 419.230469 164.328125 431.136719 168 444 168 C 483.695312 168 516 135.695312 516 96 C 516 56.304688 483.695312 24 444 24 C 404.304688 24 372 56.304688 372 96 C 372 114.167969 378.984375 130.609375 390.144531 143.28125 L 338.566406 206.734375 C 323.832031 197.542969 306.601562 192 288 192 C 265.871094 192 245.710938 199.824219 229.441406 212.472656 L 130.558594 113.59375 C 138.960938 101.832031 144 87.527344 144 72 C 144 32.304688 111.695312 0 72 0 C 32.304688 0 0 32.304688 0 72 C 0 111.695312 32.304688 144 72 144 Z M 504 360 C 530.472656 360 552 381.527344 552 408 C 552 434.472656 530.472656 456 504 456 C 477.527344 456 456 434.472656 456 408 C 456 381.527344 477.527344 360 504 360 Z M 96 552 C 69.527344 552 48 530.472656 48 504 C 48 477.527344 69.527344 456 96 456 C 122.472656 456 144 477.527344 144 504 C 144 530.472656 122.472656 552 96 552 Z M 444 48 C 470.472656 48 492 69.527344 492 96 C 492 122.472656 470.472656 144 444 144 C 417.527344 144 396 122.472656 396 96 C 396 69.527344 417.527344 48 444 48 Z M 360 288 C 360 327.695312 327.695312 360 288 360 C 248.304688 360 216 327.695312 216 288 C 216 248.304688 248.304688 216 288 216 C 327.695312 216 360 248.304688 360 288 Z M 72 24 C 98.472656 24 120 45.527344 120 72 C 120 98.472656 98.472656 120 72 120 C 45.527344 120 24 98.472656 24 72 C 24 45.527344 45.527344 24 72 24 Z M 72 24 " fill-opacity="1" fill-rule="nonzero"/></svg>