<svg xmlns="http://www.w3.org/2000/svg" xmlns:xlink="http://www.w3.org/1999/xlink" width="1024" zoomAndPan="magnify" viewBox="0 0 768 576" height="768" preserveAspectRatio="xMidYMid meet" version="1.0"><path fill="#083f72" d="M 640.015625 271.851562 L 607.960938 271.851562 L 508.34375 72.644531 L 555.3125 25.679688 C 560.5625 20.429688 560.5625 11.898438 555.3125 6.648438 C 550.0625 1.398438 541.53125 1.398438 536.285156 6.648438 L 484.226562 58.703125 L 345.71875 120.289062 C 321.496094 96.707031 291.1875 81.207031 257.757812 75.632812 L 151.035156 57.84375 L 127.1875 10.121094 C 123.851562 3.472656 115.777344 0.78125 109.128906 4.117188 C 102.480469 7.457031 99.816406 15.53125 103.125 22.179688 L 127.160156 70.25 L 38.125 265.902344 L 16.996094 272.441406 C 9.863281 274.648438 5.90625 282.160156 8.113281 289.265625 C 9.890625 295.050781 15.191406 298.765625 20.953125 298.765625 C 22.269531 298.765625 23.617188 298.578125 24.910156 298.175781 L 44.074219 292.253906 L 80.542969 328.722656 L 62.078125 347.1875 C 53.171875 356.097656 48.269531 367.941406 48.269531 380.511719 C 48.269531 393.078125 53.195312 404.921875 62.078125 413.777344 C 67.785156 419.484375 74.621094 423.199219 81.835938 425.351562 C 78.09375 432.1875 75.914062 439.777344 75.914062 447.800781 C 75.914062 460.394531 80.839844 472.210938 89.722656 481.066406 C 98.925781 490.273438 110.957031 494.847656 123.015625 494.847656 C 123.285156 494.847656 123.582031 494.769531 123.851562 494.769531 C 123.691406 507.042969 128.238281 519.34375 137.578125 528.683594 C 146.757812 537.859375 158.816406 542.460938 170.875 542.460938 C 177.925781 542.460938 184.921875 540.6875 191.410156 537.5625 C 193.507812 545.074219 197.304688 552.207031 203.226562 558.128906 C 212.40625 567.304688 224.460938 571.910156 236.496094 571.910156 C 248.550781 571.910156 260.609375 567.304688 269.816406 558.128906 L 289.816406 538.101562 L 314.199219 562.675781 C 324.238281 572.714844 337.402344 577.75 350.617188 577.75 C 363.832031 577.75 377.050781 572.6875 387.117188 562.621094 L 389.753906 559.957031 C 396.886719 552.824219 401.648438 543.890625 403.667969 534.199219 C 410.371094 537.214844 417.53125 538.855469 424.796875 538.855469 C 437.988281 538.855469 451.203125 533.875 461.324219 523.917969 C 470.851562 514.390625 476.339844 501.121094 476.339844 487.472656 C 476.339844 486.585938 476.125 485.722656 476.074219 484.835938 C 476.933594 484.890625 477.769531 485.078125 478.628906 485.078125 C 491.039062 485.078125 503.472656 480.609375 513.242188 471.675781 C 513.941406 471.191406 514.644531 470.625 515.261719 470.003906 C 529.472656 455.550781 533.324219 434.773438 527.1875 416.792969 C 537.496094 415.125 547.371094 410.441406 555.3125 402.527344 C 564.976562 392.863281 570.304688 379.917969 570.304688 366.082031 C 570.304688 352.25 565.003906 339.328125 555.3125 329.640625 L 550.710938 325.035156 L 602.820312 298.792969 L 640.015625 298.792969 C 647.445312 298.792969 653.476562 292.765625 653.476562 285.335938 C 653.476562 277.90625 647.445312 271.851562 640.015625 271.851562 Z M 75.214844 380.484375 C 75.214844 375.074219 77.3125 369.984375 81.136719 366.191406 L 115.292969 332.0625 C 119.113281 328.238281 124.148438 326.140625 129.53125 326.140625 C 129.53125 326.140625 129.53125 326.140625 129.558594 326.140625 C 134.941406 326.140625 140.027344 328.238281 143.824219 332.0625 C 151.683594 339.921875 151.683594 352.757812 143.824219 360.617188 L 138.628906 365.8125 C 138.359375 366.082031 138.007812 366.269531 137.738281 366.539062 C 137.605469 366.648438 137.46875 366.730469 137.335938 366.863281 L 109.019531 395.179688 C 101.105469 402.445312 88.832031 402.417969 81.164062 394.722656 C 77.3125 390.925781 75.214844 385.867188 75.214844 380.484375 Z M 108.777344 462.011719 C 104.957031 458.1875 102.855469 453.15625 102.855469 447.773438 C 102.855469 442.363281 104.957031 437.277344 108.777344 433.480469 L 127.429688 414.828125 C 127.835938 414.449219 128.320312 414.183594 128.722656 413.777344 L 157.066406 385.4375 C 160.808594 382.015625 165.515625 380 170.65625 380 C 176.042969 380 181.128906 382.097656 184.921875 385.921875 C 192.648438 393.644531 192.703125 406.160156 185.191406 414.046875 C 184.976562 414.261719 184.84375 414.503906 184.652344 414.746094 L 137.308594 462.066406 C 129.691406 469.65625 116.394531 469.65625 108.777344 462.011719 Z M 156.632812 509.625 C 148.75 501.738281 148.75 488.925781 156.632812 481.039062 L 204.222656 433.453125 C 208.152344 429.523438 213.320312 427.53125 218.488281 427.53125 C 223.65625 427.53125 228.824219 429.496094 232.753906 433.453125 C 236.574219 437.277344 238.675781 442.335938 238.675781 447.746094 C 238.675781 452.914062 236.628906 457.703125 233.128906 461.445312 C 232.808594 461.742188 232.539062 462.066406 232.242188 462.414062 L 203.253906 491.402344 C 203.039062 491.617188 202.902344 491.859375 202.714844 492.078125 L 185.191406 509.597656 C 177.546875 517.242188 164.25 517.242188 156.632812 509.625 Z M 250.8125 539.042969 C 242.898438 546.902344 230.113281 546.851562 222.253906 539.042969 C 214.476562 531.265625 214.449219 518.75 222.011719 510.835938 L 251.78125 481.066406 C 251.972656 480.878906 252.105469 480.664062 252.265625 480.476562 L 256.386719 476.355469 C 260.316406 472.425781 265.484375 470.4375 270.652344 470.4375 C 275.816406 470.4375 280.984375 472.402344 284.914062 476.355469 C 288.738281 480.179688 290.835938 485.238281 290.835938 490.648438 C 290.835938 496.03125 288.738281 501.09375 284.914062 504.886719 L 280.664062 509.140625 C 280.554688 509.222656 280.449219 509.25 280.339844 509.355469 C 280.234375 509.464844 280.207031 509.570312 280.125 509.679688 Z M 536.285156 383.445312 C 526.675781 393 511.089844 393 501.480469 383.445312 L 474.566406 356.527344 C 469.316406 351.277344 460.785156 351.277344 455.535156 356.527344 C 450.285156 361.777344 450.285156 370.308594 455.535156 375.558594 L 496.179688 416.199219 C 505.304688 425.324219 505.652344 440.074219 497.226562 449.84375 C 496.769531 450.195312 496.339844 450.570312 495.910156 451.003906 C 486.382812 460.53125 470.878906 460.53125 461.375 451.003906 L 420.734375 410.359375 C 415.484375 405.109375 406.953125 405.109375 401.703125 410.359375 C 396.457031 415.609375 396.457031 424.140625 401.703125 429.390625 L 442.347656 470.03125 C 446.867188 474.554688 449.453125 480.878906 449.453125 487.417969 C 449.453125 493.988281 446.867188 500.3125 442.425781 504.753906 C 432.738281 514.28125 417.046875 514.308594 407.542969 504.835938 L 389.78125 487.070312 L 353.445312 450.734375 C 348.195312 445.484375 339.664062 445.484375 334.414062 450.734375 C 329.164062 455.980469 329.164062 464.515625 334.414062 469.761719 L 370.75 506.097656 C 375.378906 510.730469 377.9375 516.894531 377.9375 523.488281 C 377.9375 530.082031 375.378906 536.273438 370.695312 540.929688 L 368.058594 543.59375 C 358.476562 553.175781 342.839844 553.175781 333.3125 543.648438 L 308.386719 518.507812 C 314.363281 510.460938 317.753906 500.851562 317.753906 490.621094 C 317.753906 478.027344 312.855469 466.210938 303.945312 457.300781 C 293.394531 446.75 279.019531 442.46875 265.214844 444.058594 C 264.351562 432.886719 259.804688 422.445312 251.78125 414.425781 C 242.390625 405.03125 229.980469 400.535156 217.625 400.75 C 217.789062 388.503906 213.265625 376.203125 203.953125 366.863281 C 196.121094 359.03125 186.160156 354.75 175.933594 353.621094 C 178.167969 339.273438 173.886719 324.09375 162.851562 313.03125 C 153.941406 304.121094 142.101562 299.222656 129.558594 299.222656 C 129.53125 299.222656 129.53125 299.222656 129.53125 299.222656 C 118.546875 299.222656 108.292969 303.152344 99.949219 309.992188 L 64.015625 274.058594 L 150.066406 84.972656 L 253.371094 102.199219 C 277.675781 106.265625 299.828125 116.816406 318.613281 132.371094 L 277.757812 150.539062 C 252.535156 161.601562 236.277344 186.609375 236.277344 214.25 L 236.277344 288 C 236.277344 303.074219 242.578125 317.175781 253.585938 326.730469 C 262.546875 334.539062 273.664062 338.65625 285.480469 338.65625 C 287.875 338.65625 290.273438 338.496094 292.695312 338.144531 C 316.597656 334.808594 331.507812 322.667969 343 311.203125 C 357.804688 296.398438 367.414062 276.910156 370.105469 256.265625 C 371.449219 245.851562 386.039062 233.011719 408.78125 221.058594 L 536.335938 348.613281 C 542.203125 354.480469 543.441406 361.320312 543.441406 366.003906 C 543.441406 370.6875 542.152344 377.601562 536.285156 383.445312 Z M 530.683594 304.984375 L 420.761719 195.058594 C 420.679688 194.980469 420.546875 194.953125 420.464844 194.871094 C 419.738281 194.171875 418.875 193.765625 418.042969 193.257812 C 417.367188 192.851562 416.75 192.339844 416.050781 192.070312 C 415.351562 191.800781 414.570312 191.777344 413.816406 191.640625 C 412.875 191.453125 411.933594 191.183594 410.964844 191.210938 C 410.34375 191.210938 409.726562 191.480469 409.105469 191.558594 C 408.003906 191.75 406.898438 191.882812 405.875 192.339844 C 405.769531 192.394531 405.660156 192.367188 405.554688 192.421875 C 367.199219 210.429688 346.3125 230.777344 343.402344 252.875 C 341.492188 267.652344 334.601562 281.621094 323.972656 292.253906 C 313.878906 302.320312 304.078125 309.480469 288.953125 311.578125 C 282.492188 312.546875 276.085938 310.691406 271.269531 306.519531 C 266.101562 302.023438 263.195312 295.292969 263.195312 288.027344 L 263.195312 214.25 C 263.195312 197.265625 273.125 181.925781 288.601562 175.140625 L 485.679688 87.476562 L 581.582031 279.304688 Z M 530.683594 304.984375 " fill-opacity="1" fill-rule="nonzero"/></svg>