<svg xmlns="http://www.w3.org/2000/svg" xmlns:xlink="http://www.w3.org/1999/xlink" width="1024" zoomAndPan="magnify" viewBox="0 0 768 576" height="768" preserveAspectRatio="xMidYMid meet" version="1.0"><path fill="#083f72" d="M 466.777344 243.289062 L 372.097656 337.96875 C 367.414062 342.648438 367.414062 350.257812 372.097656 354.9375 C 376.777344 359.617188 384.382812 359.617188 389.0625 354.9375 L 483.742188 260.257812 C 498.3125 245.6875 523.726562 245.664062 538.296875 260.257812 C 545.640625 267.625 549.671875 277.390625 549.601562 287.785156 C 549.527344 298.199219 545.398438 307.921875 537.9375 315.191406 L 368.59375 480.191406 C 352.824219 495.527344 332.015625 504 309.984375 504 L 200.542969 504 C 153.792969 504 109.847656 522.214844 76.777344 555.265625 C 72.097656 559.945312 72.097656 567.550781 76.777344 572.230469 C 79.128906 574.585938 82.199219 575.734375 85.273438 575.734375 C 88.34375 575.734375 91.414062 574.558594 93.769531 572.230469 C 122.28125 543.71875 160.199219 528 200.542969 528 L 309.984375 528 C 338.304688 528 365.0625 517.105469 385.367188 497.351562 L 554.710938 332.351562 C 566.785156 320.59375 573.503906 304.800781 573.625 287.929688 C 573.71875 271.054688 567.214844 255.191406 555.289062 243.265625 C 531.625 219.625 490.414062 219.648438 466.777344 243.289062 Z M 466.777344 243.289062 " fill-opacity="1" fill-rule="nonzero"/><path fill="#083f72" d="M 15.601562 420 C 18.671875 420 21.742188 418.824219 24.097656 416.496094 L 82.007812 358.585938 C 112.03125 328.535156 151.96875 312 194.449219 312 L 267.601562 312 C 290.761719 312 309.601562 330.839844 309.601562 354 C 309.601562 377.160156 290.761719 396 267.601562 396 L 213.601562 396 C 206.976562 396 201.601562 401.375 201.601562 408 C 201.601562 414.625 206.976562 420 213.601562 420 L 267.601562 420 C 304.007812 420 333.601562 390.40625 333.601562 354 C 333.601562 317.59375 304.007812 288 267.601562 288 L 194.449219 288 C 145.558594 288 99.601562 307.03125 65.039062 341.59375 L 7.128906 399.503906 C 2.449219 404.183594 2.449219 411.792969 7.128906 416.472656 C 9.457031 418.824219 12.527344 420 15.601562 420 Z M 15.601562 420 " fill-opacity="1" fill-rule="nonzero"/><path fill="#083f72" d="M 108 216 C 140.976562 216 168.550781 193.585938 177.046875 163.273438 C 222.214844 178.367188 252 216.023438 252 264 C 252 270.625 257.375 276 264 276 C 270.625 276 276 270.625 276 264 C 276 192.984375 293.425781 147.816406 329.039062 125.28125 C 341.519531 163.847656 377.351562 192 420 192 C 493.152344 192 545.6875 105.839844 547.894531 102.167969 C 550.175781 98.375 550.175781 93.625 547.894531 89.808594 C 545.6875 86.160156 493.152344 0 420 0 C 367.054688 0 324 43.054688 324 96 C 324 97.246094 324.3125 98.425781 324.359375 99.671875 C 290.351562 117.359375 268.273438 150.121094 258.289062 197.761719 C 241.585938 169.558594 213.960938 148.632812 179.449219 138.648438 C 176.664062 101.472656 145.871094 72 108 72 C 53.832031 72 15.335938 135.144531 13.703125 137.832031 C 11.425781 141.625 11.425781 146.375 13.703125 150.191406 C 15.335938 152.855469 53.832031 216 108 216 Z M 420 24 C 469.488281 24 510.550781 77.519531 523.246094 96 C 510.550781 114.480469 469.488281 168 420 168 C 386.929688 168 359.304688 145.488281 350.878906 115.054688 C 364.199219 110.6875 378.9375 108 396 108 C 402.625 108 408 102.625 408 96 C 408 89.375 402.625 84 396 84 C 378.625 84 362.855469 86.0625 348.601562 90.046875 C 351.671875 53.183594 382.34375 24 420 24 Z M 108 96 C 130.894531 96 150.023438 112.128906 154.800781 133.585938 C 147.382812 132.648438 139.847656 132 132 132 C 125.375 132 120 137.375 120 144 C 120 150.625 125.375 156 132 156 C 139.511719 156 146.710938 156.769531 153.742188 157.800781 C 147.769531 177.503906 129.648438 192 108 192 C 75.816406 192 48.503906 158.207031 38.425781 144 C 48.503906 129.792969 75.816406 96 108 96 Z M 108 96 " fill-opacity="1" fill-rule="nonzero"/></svg>