<svg xmlns="http://www.w3.org/2000/svg" xmlns:xlink="http://www.w3.org/1999/xlink" width="1024" zoomAndPan="magnify" viewBox="0 0 768 576" height="768" preserveAspectRatio="xMidYMid meet" version="1.0"><path fill="#083f72" d="M 136.800781 274.007812 C 129.648438 323.230469 145.703125 371.28125 180.839844 405.792969 C 199.535156 424.175781 210.265625 450.023438 210.265625 476.761719 L 210.265625 540.238281 C 210.265625 564.792969 226.222656 576 241.054688 576 L 334.96875 576 C 351.960938 576 365.761719 562.199219 365.761719 545.207031 L 365.761719 476.785156 C 365.761719 449.734375 376.152344 424.199219 394.246094 406.726562 C 424.320312 377.664062 440.902344 338.664062 440.902344 296.855469 C 440.902344 253.441406 422.351562 211.921875 389.976562 182.929688 C 357.648438 153.984375 314.183594 140.207031 270.625 144.9375 C 202.847656 152.472656 146.566406 206.734375 136.800781 274.007812 Z M 334.96875 552 L 241.054688 552 C 234.769531 552 234.265625 543 234.265625 540.238281 L 234.265625 504 L 341.761719 504 L 341.761719 545.207031 C 341.734375 548.953125 338.6875 552 334.96875 552 Z M 288.167969 168 C 319.96875 168 349.992188 179.398438 373.945312 200.855469 C 401.230469 225.289062 416.878906 260.304688 416.878906 296.878906 C 416.878906 332.089844 402.910156 364.96875 377.566406 389.472656 C 354.816406 411.457031 341.761719 443.28125 341.761719 476.808594 L 341.761719 480 L 234.265625 480 L 234.265625 476.785156 C 234.265625 443.664062 220.921875 411.550781 197.664062 388.703125 C 168.023438 359.59375 154.511719 319.054688 160.535156 277.464844 C 168.769531 220.824219 216.191406 175.128906 273.265625 168.816406 C 278.257812 168.265625 283.222656 168 288.167969 168 Z M 288.167969 168 " fill-opacity="1" fill-rule="nonzero"/><path fill="#083f72" d="M 128.496094 152.496094 C 133.175781 147.816406 133.175781 140.207031 128.496094 135.527344 L 80.496094 87.527344 C 75.816406 82.847656 68.207031 82.847656 63.527344 87.527344 C 58.847656 92.207031 58.847656 99.816406 63.527344 104.496094 L 111.527344 152.496094 C 113.855469 154.824219 116.929688 156 120 156 C 123.070312 156 126.144531 154.824219 128.496094 152.496094 Z M 128.496094 152.496094 " fill-opacity="1" fill-rule="nonzero"/><path fill="#083f72" d="M 512.496094 87.503906 C 507.816406 82.824219 500.207031 82.824219 495.527344 87.503906 L 447.527344 135.503906 C 442.847656 140.183594 442.847656 147.792969 447.527344 152.472656 C 449.855469 154.824219 452.929688 156 456 156 C 459.070312 156 462.144531 154.824219 464.496094 152.496094 L 512.496094 104.496094 C 517.175781 99.792969 517.175781 92.207031 512.496094 87.503906 Z M 512.496094 87.503906 " fill-opacity="1" fill-rule="nonzero"/><path fill="#083f72" d="M 300 72 L 300 12 C 300 5.375 294.625 0 288 0 C 281.375 0 276 5.375 276 12 L 276 72 C 276 78.625 281.375 84 288 84 C 294.625 84 300 78.625 300 72 Z M 300 72 " fill-opacity="1" fill-rule="nonzero"/><path fill="#083f72" d="M 564 264 L 504 264 C 497.375 264 492 269.375 492 276 C 492 282.625 497.375 288 504 288 L 564 288 C 570.625 288 576 282.625 576 276 C 576 269.375 570.625 264 564 264 Z M 564 264 " fill-opacity="1" fill-rule="nonzero"/><path fill="#083f72" d="M 12 288 L 72 288 C 78.625 288 84 282.625 84 276 C 84 269.375 78.625 264 72 264 L 12 264 C 5.375 264 0 269.375 0 276 C 0 282.625 5.375 288 12 288 Z M 12 288 " fill-opacity="1" fill-rule="nonzero"/></svg>